<?xml version="1.0" encoding="UTF-8" ?>
<!DOCTYPE svg PUBLIC "-//W3C//DTD SVG 1.1//EN" "http://www.w3.org/Graphics/SVG/1.1/DTD/svg11.dtd">
	<svg width="100%" height="100%"  viewBox="0 0 110 85" version="1.1" xmlns="http://www.w3.org/2000/svg"  style="stroke-antialiasing:true" shape-rendering="crispEdges"> <!--shape-rendering="optimizeQuality"-->
	<path class="svg-arrow-fit" id="target" fill="#333333" d=" M 6.12 0.00 L 11.10 0.00 C 23.99 7.65 33.63 19.41 44.19 29.82 C 47.20 32.57 50.23 37.16 54.87 36.33 C 58.59 34.88 61.08 31.55 63.72 28.72 C 68.09 23.76 72.77 19.10 77.39 14.39 C 82.68 8.84 89.31 4.89 95.16 0.00 L 102.03 0.00 C 103.22 1.98 104.68 3.87 105.36 6.11 C 105.77 9.13 103.56 11.61 101.92 13.89 C 86.95 32.37 73.89 52.31 61.84 72.78 C 60.19 75.69 57.83 79.01 54.00 78.45 C 48.83 79.03 47.13 73.44 44.95 69.93 C 35.38 53.19 24.36 37.33 13.50 21.40 C 10.13 16.15 5.16 11.88 2.82 6.01 C 3.41 3.77 4.92 1.94 6.12 0.00 Z"  />
</svg>
