<?xml version="1.0" encoding="UTF-8" standalone="no"?>
<svg width="100%" height="100%" viewBox="0 0 261 19" version="1.1" xmlns="http://www.w3.org/2000/svg" xmlns:xlink="http://www.w3.org/1999/xlink" xmlns:sketch="http://www.bohemiancoding.com/sketch/ns" shape-rendering="optimizeQuality" style="stroke-antialiasing:true">
    <defs></defs>
    <g id="Page-1" stroke="none" stroke-width="1" fill="none" fill-rule="evenodd" sketch:type="MSPage">
        <g id="Group-2" sketch:type="MSLayerGroup" fill="#E4E5E3">
            <path d="M1.925,0.339 C2.074,0.339 4.432,0.428 5.626,0.428 C6.82,0.428 8.849,0.339 9.446,0.339 C10.073,0.339 10.401,0.577 10.401,0.936 C10.401,1.264 10.043,1.563 9.446,1.682 C7.864,2.01 7.685,2.547 7.626,3.293 C7.566,3.98 7.477,5.412 7.477,8.457 C7.477,12.069 7.536,14.635 7.626,15.65 C7.656,16.038 8.282,16.664 9.267,16.904 C9.983,17.053 11.446,17.023 12.282,16.844 C13.296,16.576 14.52,15.172 15.236,13.859 C15.505,13.292 15.804,13.083 15.923,13.083 C16.371,13.083 16.699,13.68 16.609,14.188 C16.46,14.904 15.833,17.172 15.624,17.769 C15.445,18.217 14.908,18.515 14.311,18.515 C13.267,18.515 9.954,18.396 6.253,18.396 C4.223,18.396 1.865,18.545 1.209,18.545 C0.552,18.545 0.104,18.246 0.104,17.888 C0.104,17.5 0.493,17.262 1,17.172 C2.999,16.754 3.209,16.098 3.268,15.411 C3.328,14.695 3.388,13.143 3.388,9.591 C3.388,4.189 3.417,4.039 3.358,3.234 C3.268,2.249 2.85,2.07 1.865,1.682 C1.239,1.413 1,1.235 1,0.906 C1,0.488 1.507,0.339 1.925,0.339" id="Fill-4" sketch:type="MSShapeGroup"></path>
            <path d="M22.805,18.396 C21.939,18.396 20.088,18.515 19.551,18.515 C19.044,18.515 18.507,18.277 18.507,17.949 C18.507,17.619 18.805,17.322 19.342,17.142 C20.626,16.785 20.865,16.516 20.954,15.441 C20.984,14.785 21.044,11.561 21.044,10.517 L21.044,7.502 C21.014,6.845 20.656,6.457 19.79,6.189 C19.372,6.039 18.835,5.861 18.835,5.472 C18.835,5.084 19.223,4.846 19.879,4.846 C20.327,4.846 22.178,4.906 23.043,4.906 C23.819,4.906 25.252,4.756 25.938,4.756 C26.565,4.756 26.983,4.994 26.983,5.324 C26.983,5.771 26.505,5.98 26.087,6.099 C25.073,6.427 24.685,6.726 24.685,7.084 L24.685,9.501 C24.685,11.979 24.774,14.814 24.834,15.471 C24.923,16.605 25.132,16.785 26.118,17.082 C26.655,17.232 26.953,17.65 26.953,17.799 C26.953,18.127 26.505,18.486 26.058,18.486 C24.894,18.486 23.73,18.396 22.805,18.396" id="Fill-5" sketch:type="MSShapeGroup"></path>
            <path d="M30.44,4.697 C30.739,4.697 33.544,4.816 34.201,4.875 C34.589,4.935 35.127,5.174 35.216,5.293 C35.693,5.771 36.738,6.816 37.365,7.443 C39.186,9.323 41.483,11.71 42.707,12.904 C42.737,12.934 43.006,12.815 43.006,12.665 C43.006,11.651 42.946,8.666 42.827,7.652 C42.767,6.816 42.468,6.636 41.066,6.218 C40.499,6.039 40.021,5.801 40.021,5.383 C40.021,4.994 40.588,4.816 41.036,4.816 C41.931,4.816 43.274,4.906 44.021,4.906 C44.647,4.906 45.244,4.816 45.99,4.816 C46.557,4.816 47.095,4.965 47.095,5.412 C47.095,5.681 46.916,5.89 46.378,6.099 C44.916,6.576 44.796,6.845 44.737,7.382 C44.647,8.517 44.468,11.352 44.468,13.024 C44.468,14.516 44.677,17.322 44.677,17.918 C44.677,18.426 44.319,18.963 44.11,18.963 C43.394,18.963 42.588,18.486 42.17,17.978 C41.573,17.322 41.066,16.635 39.663,15.083 C38.469,13.74 35.753,10.874 34.32,9.412 C34.201,9.263 33.962,9.412 33.962,9.591 C33.933,11.114 34.022,14.486 34.231,15.62 C34.32,16.307 34.768,16.844 36.201,17.262 C36.559,17.381 37.006,17.65 37.006,17.949 C37.006,18.306 36.559,18.545 35.843,18.545 C35.723,18.545 33.365,18.396 32.56,18.396 C31.873,18.396 31.425,18.486 30.829,18.486 C30.231,18.486 29.694,18.246 29.694,17.859 C29.694,17.5 30.172,17.262 30.709,17.082 C31.903,16.695 32.112,16.367 32.231,15.859 C32.41,14.934 32.47,13.411 32.47,11.501 C32.47,10.606 32.44,8.218 32.38,7.711 C32.351,7.562 32.321,7.353 32.142,7.173 C31.694,6.697 31.336,6.308 30.351,6.039 C29.843,5.92 29.366,5.771 29.366,5.412 C29.366,5.144 29.813,4.697 30.44,4.697" id="Fill-6" sketch:type="MSShapeGroup"></path>
            <path d="M61.668,18.187 C60.713,18.545 58.892,18.873 57.251,18.873 C54.744,18.873 52.296,18.068 50.894,16.695 C49.64,15.471 48.864,13.889 48.864,11.68 C48.864,9.472 49.968,7.472 51.759,6.189 C53.52,4.935 55.729,4.457 57.668,4.457 C59.519,4.457 61.489,4.994 62.026,5.144 C62.116,5.174 62.444,5.502 62.534,5.83 C62.743,6.488 62.952,7.741 62.952,8.368 C62.952,8.815 62.563,9.382 62.146,9.382 C61.847,9.382 61.668,9.054 61.429,8.517 C61.101,7.771 60.683,7.203 60.295,6.845 C59.668,6.248 58.415,5.83 57.4,5.83 C56.206,5.83 55.251,6.368 54.654,6.965 C53.789,7.8 53.072,9.501 53.072,11.411 C53.072,12.874 53.58,14.576 54.535,15.68 C55.371,16.664 57.012,17.351 58.057,17.351 C58.862,17.351 59.907,16.933 60.444,16.516 C60.802,16.217 61.399,15.202 61.728,14.606 C61.937,14.277 62.504,13.949 62.862,13.949 C63.13,13.949 63.19,14.576 63.041,15.023 C62.862,15.561 62.653,16.605 62.534,17.531 C62.474,17.859 61.997,18.037 61.668,18.187" id="Fill-7" sketch:type="MSShapeGroup"></path>
            <path d="M71.615,6.965 C70.869,7.711 70.451,9.412 70.451,11.323 C70.451,13.143 70.928,14.754 71.734,15.799 C72.48,16.814 73.555,17.441 74.659,17.441 C75.525,17.441 76.271,17.082 76.897,16.277 C77.554,15.411 77.942,13.829 77.942,11.8 C77.942,9.86 76.987,5.861 73.704,5.861 C73.077,5.861 72.331,6.159 71.615,6.965 L71.615,6.965 Z M82.091,11.501 C82.091,13.859 81.225,15.65 79.464,17.082 C77.763,18.455 75.137,18.873 74.361,18.873 C71.674,18.873 69.615,17.978 68.332,16.754 C66.75,15.232 66.212,13.202 66.212,11.68 C66.212,9.412 67.167,7.681 68.69,6.398 C70.242,5.055 72.361,4.457 74.152,4.457 C78.927,4.457 82.091,7.771 82.091,11.501 L82.091,11.501 Z" id="Fill-8" sketch:type="MSShapeGroup"></path>
            <path d="M95.74,18.515 C94.904,18.515 92.367,18.396 88.606,18.396 C87.114,18.396 85.532,18.515 84.964,18.515 C84.338,18.515 83.92,18.277 83.92,17.918 C83.92,17.56 84.398,17.322 85.025,17.172 C86.308,16.904 86.487,16.576 86.606,15.829 C86.696,15.381 86.696,14.307 86.696,13.62 C86.696,12.188 86.636,8.666 86.577,7.472 C86.517,6.697 86.308,6.398 85.532,6.189 C84.905,6.039 84.577,5.771 84.577,5.412 C84.577,5.115 84.964,4.846 85.622,4.846 C85.98,4.846 87.204,4.935 88.337,4.935 C89.471,4.935 91.083,4.756 91.949,4.756 C92.516,4.756 92.963,4.906 92.963,5.324 C92.963,5.681 92.576,5.95 91.83,6.129 C90.695,6.398 90.516,6.845 90.457,7.353 C90.367,8.278 90.337,12.188 90.337,14.098 L90.337,15.769 C90.337,16.247 90.844,16.754 91.172,16.844 C91.71,16.963 92.486,17.023 92.963,17.023 C93.74,17.023 94.396,16.844 95.113,15.978 C95.441,15.59 96.216,14.486 96.486,14.038 C96.665,13.71 96.933,13.471 97.083,13.471 C97.411,13.471 97.798,14.158 97.62,14.725 C97.351,15.531 96.754,17.023 96.486,18.097 C96.425,18.246 95.888,18.515 95.74,18.515" id="Fill-9" sketch:type="MSShapeGroup"></path>
            <path d="M100.376,4.697 C100.674,4.697 103.48,4.816 104.136,4.875 C104.525,4.935 105.062,5.174 105.152,5.293 C105.628,5.771 106.673,6.816 107.3,7.443 C109.121,9.323 111.419,11.71 112.643,12.904 C112.672,12.934 112.941,12.815 112.941,12.665 C112.941,11.651 112.881,8.666 112.762,7.652 C112.703,6.816 112.404,6.636 111.001,6.218 C110.434,6.039 109.957,5.801 109.957,5.383 C109.957,4.994 110.524,4.816 110.971,4.816 C111.867,4.816 113.209,4.906 113.956,4.906 C114.583,4.906 115.179,4.816 115.926,4.816 C116.493,4.816 117.03,4.965 117.03,5.412 C117.03,5.681 116.851,5.89 116.314,6.099 C114.851,6.576 114.732,6.845 114.672,7.382 C114.583,8.517 114.404,11.352 114.404,13.024 C114.404,14.516 114.613,17.322 114.613,17.918 C114.613,18.426 114.254,18.963 114.045,18.963 C113.33,18.963 112.523,18.486 112.106,17.978 C111.508,17.322 111.001,16.635 109.598,15.083 C108.405,13.74 105.689,10.874 104.256,9.412 C104.136,9.263 103.898,9.412 103.898,9.591 C103.868,11.114 103.958,14.486 104.167,15.62 C104.256,16.307 104.704,16.844 106.136,17.262 C106.495,17.381 106.942,17.65 106.942,17.949 C106.942,18.306 106.495,18.545 105.778,18.545 C105.659,18.545 103.301,18.396 102.495,18.396 C101.808,18.396 101.361,18.486 100.764,18.486 C100.167,18.486 99.629,18.246 99.629,17.859 C99.629,17.5 100.107,17.262 100.645,17.082 C101.838,16.695 102.047,16.367 102.167,15.859 C102.346,14.934 102.406,13.411 102.406,11.501 C102.406,10.606 102.375,8.218 102.316,7.711 C102.287,7.562 102.256,7.353 102.078,7.173 C101.629,6.697 101.271,6.308 100.287,6.039 C99.779,5.92 99.301,5.771 99.301,5.412 C99.301,5.144 99.75,4.697 100.376,4.697" id="Fill-10" sketch:type="MSShapeGroup"></path>
            <path d="M135.747,2.995 C135.389,2.547 134.195,1.712 132.912,1.712 C132.583,1.712 132.225,1.831 132.106,1.951 C132.016,2.04 131.897,2.219 131.897,2.368 C131.837,3.353 131.778,6.607 131.778,8.755 C131.778,11.741 131.807,14.217 131.807,14.516 C131.807,16.307 132.106,16.695 133.867,17.172 C134.494,17.322 134.762,17.531 134.762,17.918 C134.762,18.187 134.344,18.486 133.717,18.486 C132.822,18.486 131.717,18.396 130.494,18.396 C129.419,18.396 126.853,18.575 125.868,18.575 C125.241,18.575 124.734,18.336 124.734,17.978 C124.734,17.619 125.002,17.381 125.808,17.142 C127.21,16.724 127.331,16.277 127.48,15.262 C127.54,14.606 127.749,11.263 127.749,6.756 C127.749,5.115 127.718,3.801 127.628,3.115 C127.569,2.428 127.21,2.01 125.958,1.712 C125.48,1.592 124.972,1.204 124.972,0.906 C124.972,0.428 125.361,0.309 125.868,0.309 C126.942,0.309 128.106,0.428 129.241,0.428 C130.255,0.428 131.717,0.28 133.777,0.28 C136.374,0.28 138.254,1.085 139.269,2.129 C140.015,2.936 140.821,4.547 140.821,6.07 C140.821,8.278 139.597,9.8 138.941,10.397 C137.716,11.472 136.224,11.919 134.971,11.919 C134.375,11.919 133.926,11.829 133.508,11.561 C133.24,11.382 132.941,11.083 132.941,10.934 C132.941,10.636 133.09,10.487 133.299,10.456 C133.419,10.427 133.627,10.397 133.777,10.368 C134.762,10.247 136.613,9.501 136.613,6.159 C136.613,4.577 136.015,3.353 135.747,2.995" id="Fill-11" sketch:type="MSShapeGroup"></path>
            <path d="M148.084,8.935 C147.786,9.472 146.831,11.919 146.622,12.635 L146.92,12.934 C147.16,12.993 147.756,12.964 148.353,12.964 C148.861,12.964 149.458,12.934 149.667,12.874 C149.786,12.815 149.875,12.725 149.845,12.576 C149.726,11.979 148.711,9.412 148.443,8.935 C148.353,8.726 148.174,8.785 148.084,8.935 L148.084,8.935 Z M150.741,4.994 C150.831,5.562 151.04,6.159 151.308,6.845 C151.845,8.128 154.114,13.74 154.77,15.202 C155.337,16.426 155.635,16.754 156.889,17.172 C157.457,17.351 157.605,17.531 157.605,17.828 C157.605,18.068 157.217,18.545 156.68,18.545 C155.337,18.545 153.815,18.396 152.77,18.396 C151.905,18.396 151.458,18.486 150.502,18.486 C149.935,18.486 149.547,18.246 149.547,17.978 C149.547,17.679 149.816,17.381 150.234,17.232 C151.04,16.904 151.159,16.695 151.099,16.307 C151.04,16.008 150.71,15.053 150.591,14.874 C150.472,14.695 150.353,14.635 150.173,14.606 C149.845,14.516 149.07,14.545 148.234,14.516 C147.428,14.516 146.622,14.545 146.264,14.606 C146.084,14.665 145.846,14.814 145.756,14.963 C145.637,15.232 145.369,15.799 145.338,16.158 C145.279,16.754 145.607,16.873 146.234,17.142 C146.831,17.41 147.07,17.531 147.07,17.918 C147.07,18.306 146.622,18.486 146.174,18.486 C145.488,18.486 145.369,18.396 144.443,18.396 C143.667,18.396 142.593,18.545 141.698,18.545 C141.16,18.545 140.683,18.217 140.683,17.888 C140.683,17.619 141.041,17.381 141.608,17.202 C142.712,16.873 143.16,16.307 143.637,15.352 C144.473,13.74 145.816,10.546 147.04,7.741 C147.369,6.994 147.398,6.816 147.577,6.338 C147.637,6.159 147.906,5.711 148.115,5.652 C148.324,5.533 148.98,5.234 149.368,4.875 C149.667,4.607 149.964,4.457 150.204,4.457 C150.382,4.457 150.681,4.697 150.741,4.994 L150.741,4.994 Z" id="Fill-12" sketch:type="MSShapeGroup"></path>
            <path d="M166.086,6.338 C165.998,6.398 165.908,6.576 165.908,6.756 C165.877,7.382 165.877,10.368 166.057,10.815 C166.086,10.905 166.266,11.114 166.445,11.114 C168.086,11.114 168.952,10.665 169.101,10.576 C169.28,10.427 169.757,9.89 169.757,8.815 C169.757,7.591 168.892,6.07 166.982,6.07 C166.863,6.07 166.326,6.189 166.086,6.338 L166.086,6.338 Z M170.116,16.993 C169.579,16.336 168.534,14.486 167.699,13.143 C167.4,12.665 166.803,12.367 166.326,12.367 C166.176,12.367 166.027,12.546 165.998,12.696 C165.908,13.083 166.027,15.083 166.117,15.949 C166.176,16.695 166.683,16.904 167.638,17.262 C168.027,17.381 168.325,17.769 168.325,18.068 C168.325,18.336 167.847,18.575 167.34,18.575 C166.236,18.575 164.236,18.396 163.162,18.396 C162.446,18.396 162.177,18.486 161.341,18.486 C160.745,18.486 160.177,18.277 160.177,17.888 C160.177,17.56 160.446,17.351 161.162,17.082 C162.087,16.754 162.177,16.455 162.296,15.62 C162.356,15.053 162.416,13.352 162.416,11.382 C162.416,8.696 162.416,7.86 162.386,7.173 C162.356,6.697 162.177,6.457 161.192,6.189 C160.684,6.07 160.207,5.771 160.207,5.412 C160.207,5.144 160.714,4.846 161.282,4.846 C161.968,4.875 162.803,4.875 163.639,4.875 C164.475,4.906 165.728,4.726 167.847,4.726 C169.847,4.726 171.489,5.203 172.265,5.92 C173.071,6.607 173.429,7.323 173.429,8.368 C173.429,9.532 172.892,10.368 172.206,10.815 C171.997,10.964 171.339,11.263 171.042,11.411 L170.982,11.71 C171.548,12.815 172.743,14.844 173.698,15.889 C174.473,16.785 175.1,17.082 175.876,17.262 C176.205,17.322 176.682,17.531 176.682,17.918 C176.682,18.127 176.383,18.396 175.906,18.575 C175.548,18.724 174.473,18.724 174.175,18.724 C172.743,18.724 171.339,18.455 170.116,16.993 L170.116,16.993 Z" id="Fill-13" sketch:type="MSShapeGroup"></path>
            <path d="M190.659,8.457 C190.151,7.054 189.673,6.457 189.226,6.457 C188.778,6.457 188.091,6.547 186.838,6.547 C186.749,6.547 186.629,6.726 186.629,6.845 C186.629,9.353 186.57,14.844 186.629,15.799 C186.659,16.396 186.988,16.664 188.271,17.113 C188.837,17.322 189.196,17.531 189.196,17.978 C189.196,18.366 188.54,18.575 188.091,18.575 C186.988,18.575 185.286,18.396 183.764,18.396 C182.898,18.396 181.914,18.486 181.227,18.486 C180.69,18.486 180.153,18.277 180.153,17.859 C180.153,17.56 180.571,17.232 181.018,17.082 C182.451,16.605 182.6,16.367 182.629,15.889 C182.779,14.098 182.928,10.278 182.928,7.412 C182.928,7.173 182.838,6.547 182.66,6.547 C182.092,6.547 180.869,6.457 180.362,6.457 C179.914,6.457 179.138,7.621 178.75,8.546 C178.511,9.054 178.302,9.203 178.153,9.203 C177.706,9.203 177.376,8.726 177.376,8.368 C177.376,8.039 177.675,5.592 177.794,4.846 C177.794,4.666 178.272,4.248 178.511,4.368 C179.227,4.786 180.123,4.906 182.182,4.906 L186.868,4.906 C190.509,4.906 190.927,4.697 191.434,4.457 C191.823,4.248 192.091,4.816 192.091,4.875 C192.001,5.592 192.061,7.621 192.091,8.248 C192.091,8.726 191.524,9.144 191.255,9.144 C191.016,9.144 190.808,8.845 190.659,8.457" id="Fill-14" sketch:type="MSShapeGroup"></path>
            <path d="M195.621,4.697 C195.919,4.697 198.725,4.816 199.381,4.875 C199.77,4.935 200.307,5.174 200.396,5.293 C200.875,5.771 201.918,6.816 202.545,7.443 C204.366,9.323 206.665,11.71 207.888,12.904 C207.917,12.934 208.186,12.815 208.186,12.665 C208.186,11.651 208.126,8.666 208.007,7.652 C207.948,6.816 207.649,6.636 206.247,6.218 C205.679,6.039 205.202,5.801 205.202,5.383 C205.202,4.994 205.769,4.816 206.216,4.816 C207.112,4.816 208.455,4.906 209.201,4.906 C209.828,4.906 210.425,4.816 211.171,4.816 C211.738,4.816 212.275,4.965 212.275,5.412 C212.275,5.681 212.096,5.89 211.559,6.099 C210.096,6.576 209.977,6.845 209.917,7.382 C209.828,8.517 209.649,11.352 209.649,13.024 C209.649,14.516 209.858,17.322 209.858,17.918 C209.858,18.426 209.5,18.963 209.291,18.963 C208.575,18.963 207.768,18.486 207.351,17.978 C206.753,17.322 206.247,16.635 204.843,15.083 C203.65,13.74 200.934,10.874 199.501,9.412 C199.381,9.263 199.143,9.412 199.143,9.591 C199.113,11.114 199.203,14.486 199.412,15.62 C199.501,16.307 199.949,16.844 201.381,17.262 C201.74,17.381 202.187,17.65 202.187,17.949 C202.187,18.306 201.74,18.545 201.023,18.545 C200.904,18.545 198.546,18.396 197.74,18.396 C197.054,18.396 196.606,18.486 196.009,18.486 C195.413,18.486 194.875,18.246 194.875,17.859 C194.875,17.5 195.352,17.262 195.89,17.082 C197.083,16.695 197.292,16.367 197.412,15.859 C197.591,14.934 197.651,13.411 197.651,11.501 C197.651,10.606 197.621,8.218 197.561,7.711 C197.531,7.562 197.501,7.353 197.323,7.173 C196.875,6.697 196.516,6.308 195.532,6.039 C195.024,5.92 194.546,5.771 194.546,5.412 C194.546,5.144 194.995,4.697 195.621,4.697" id="Fill-15" sketch:type="MSShapeGroup"></path>
            <path d="M217.071,7.382 C217.041,6.785 216.743,6.457 215.667,6.07 C215.25,5.95 214.862,5.681 214.862,5.353 C214.862,4.994 215.28,4.786 215.937,4.786 C216.563,4.786 217.907,4.906 219.309,4.906 C224.801,4.906 225.995,4.816 226.622,4.697 C226.741,4.666 227.04,4.965 227.04,5.144 C227.04,5.89 226.89,7.144 226.8,7.591 C226.681,8.159 226.293,8.546 225.995,8.546 C225.756,8.546 225.607,8.398 225.398,7.95 C224.89,6.905 224.711,6.488 224.174,6.427 C223.458,6.368 222.293,6.398 221.19,6.398 C221.041,6.398 220.891,6.607 220.861,6.697 C220.742,7.234 220.742,9.681 220.832,10.517 L221.1,10.786 L222.084,10.786 C223.1,10.786 223.369,10.606 223.787,9.83 C223.995,9.412 224.263,9.083 224.533,9.083 C224.95,9.083 225.07,9.591 225.07,10.069 C225.07,10.337 225.01,10.993 225.01,11.591 C225.01,12.456 225.07,12.665 225.07,13.143 C225.07,13.68 224.861,14.128 224.472,14.128 C224.144,14.128 223.875,13.799 223.697,13.352 C223.488,12.874 223.338,12.576 222.951,12.487 C222.533,12.367 221.607,12.427 220.981,12.427 L220.801,12.696 C220.712,13.322 220.742,15.143 220.891,16.038 C220.921,16.158 221.16,16.576 221.25,16.605 C221.488,16.785 222.623,17.023 223.04,17.023 C223.369,17.023 224.443,16.993 224.98,16.844 C225.667,16.635 226.054,16.217 226.831,15.232 C227.218,14.725 227.427,14.367 227.786,14.367 C228.173,14.367 228.292,14.754 228.292,15.262 C228.292,16.098 227.696,17.59 227.458,17.978 C227.278,18.246 226.86,18.515 226.532,18.515 C225.816,18.515 223.338,18.396 219.19,18.396 C218.235,18.396 216.175,18.545 215.519,18.545 C214.833,18.545 214.415,18.217 214.415,17.888 C214.415,17.56 214.773,17.291 215.339,17.142 C216.623,16.785 216.981,16.516 217.071,15.262 C217.13,14.426 217.13,12.993 217.13,11.263 C217.13,9.562 217.13,8.248 217.071,7.382" id="Fill-16" sketch:type="MSShapeGroup"></path>
            <path d="M236.688,6.338 C236.599,6.398 236.509,6.576 236.509,6.756 C236.479,7.382 236.479,10.368 236.659,10.815 C236.688,10.905 236.868,11.114 237.046,11.114 C238.688,11.114 239.553,10.665 239.703,10.576 C239.881,10.427 240.359,9.89 240.359,8.815 C240.359,7.591 239.494,6.07 237.583,6.07 C237.464,6.07 236.927,6.189 236.688,6.338 L236.688,6.338 Z M240.717,16.993 C240.18,16.336 239.135,14.486 238.3,13.143 C238.001,12.665 237.405,12.367 236.927,12.367 C236.778,12.367 236.628,12.546 236.599,12.696 C236.509,13.083 236.628,15.083 236.718,15.949 C236.778,16.695 237.285,16.904 238.24,17.262 C238.628,17.381 238.926,17.769 238.926,18.068 C238.926,18.336 238.449,18.575 237.942,18.575 C236.837,18.575 234.837,18.396 233.763,18.396 C233.047,18.396 232.779,18.486 231.943,18.486 C231.346,18.486 230.779,18.277 230.779,17.888 C230.779,17.56 231.047,17.351 231.763,17.082 C232.689,16.754 232.779,16.455 232.898,15.62 C232.958,15.053 233.017,13.352 233.017,11.382 C233.017,8.696 233.017,7.86 232.988,7.173 C232.958,6.697 232.779,6.457 231.793,6.189 C231.286,6.07 230.808,5.771 230.808,5.412 C230.808,5.144 231.316,4.846 231.883,4.846 C232.57,4.875 233.405,4.875 234.241,4.875 C235.077,4.906 236.33,4.726 238.449,4.726 C240.449,4.726 242.09,5.203 242.867,5.92 C243.672,6.607 244.031,7.323 244.031,8.368 C244.031,9.532 243.494,10.368 242.807,10.815 C242.598,10.964 241.941,11.263 241.643,11.411 L241.583,11.71 C242.15,12.815 243.344,14.844 244.299,15.889 C245.075,16.785 245.702,17.082 246.478,17.262 C246.806,17.322 247.284,17.531 247.284,17.918 C247.284,18.127 246.985,18.396 246.507,18.575 C246.15,18.724 245.075,18.724 244.777,18.724 C243.344,18.724 241.941,18.455 240.717,16.993 L240.717,16.993 Z" id="Fill-17" sketch:type="MSShapeGroup"></path>
            <path d="M259.108,5.055 C259.257,5.115 259.496,5.533 259.496,5.771 C259.496,6.547 259.616,7.681 259.556,8.128 C259.496,8.666 259.167,9.024 258.87,9.024 C258.511,9.024 258.332,8.636 258.183,8.218 C257.974,7.711 257.765,7.173 257.466,6.845 C256.959,6.129 255.944,5.742 255.228,5.742 C254.064,5.742 253.228,6.576 253.228,7.502 C253.228,8.218 253.765,8.875 254.572,9.323 C255.586,9.89 256.661,10.337 257.646,10.845 C259.018,11.591 260.182,12.696 260.182,14.397 C260.182,16.247 259.078,17.351 258.093,17.918 C257.347,18.396 255.944,18.873 254.363,18.873 C252.75,18.873 251.199,18.545 250.303,18.097 C250.005,17.918 249.826,17.65 249.796,17.441 C249.707,17.053 249.467,15.053 249.467,14.695 C249.467,14.397 249.766,13.859 250.094,13.859 C250.512,13.859 250.751,14.307 251.676,15.74 C252.453,16.933 253.736,17.531 254.631,17.531 C255.765,17.531 256.63,16.785 256.63,15.829 C256.63,15.053 256.093,14.456 255.377,14.038 C254.333,13.471 253.258,12.964 252.422,12.487 C251.318,11.829 249.945,10.636 249.945,8.726 C249.945,7.353 250.542,6.129 251.885,5.324 C252.75,4.786 254.034,4.457 255.497,4.457 C256.75,4.457 258.183,4.786 259.108,5.055" id="Fill-18" sketch:type="MSShapeGroup"></path>
        </g>
    </g>
</svg>